<?xml version="1.0" standalone="no"?>
<!DOCTYPE svg PUBLIC "-//W3C//DTD SVG 20010904//EN"
 "http://www.w3.org/TR/2001/REC-SVG-20010904/DTD/svg10.dtd">
<svg version="1.0" xmlns="http://www.w3.org/2000/svg"
 width="1201.000000pt" height="1201.000000pt" viewBox="0 0 1201.000000 1201.000000"
 preserveAspectRatio="xMidYMid meet">
<metadata>
Created by potrace 1.11, written by Peter Selinger 2001-2013
</metadata>
<g transform="translate(0.000000,1201.000000) scale(0.100000,-0.100000)"
fill="#000000" stroke="none">
<path d="M5994 9276 c-6 -6 -28 -24 -49 -41 -21 -16 -50 -39 -64 -51 -127
-100 -387 -224 -581 -277 -62 -17 -185 -43 -245 -52 -196 -30 -491 -25 -675
10 -14 3 -34 7 -45 9 -265 51 -572 195 -790 371 -20 17 -39 29 -43 27 -8 -3
-6 -3360 2 -3467 4 -49 9 -110 11 -135 4 -47 31 -237 40 -280 103 -503 278
-895 577 -1295 168 -223 468 -513 718 -693 47 -34 90 -65 95 -70 26 -20 259
-163 330 -202 44 -24 100 -54 124 -67 107 -59 442 -203 471 -203 9 0 20 -4 26
-9 5 -5 32 -16 61 -24 51 -15 53 -15 155 19 57 20 117 41 133 49 17 7 55 23
85 36 84 33 310 143 392 190 40 23 87 49 104 59 174 100 398 259 564 400 88
75 325 311 386 385 27 33 52 62 55 65 15 13 152 205 204 285 66 101 245 448
245 474 0 9 4 21 9 26 18 21 120 336 137 425 3 14 7 33 10 42 3 10 7 29 10 43
2 14 6 37 9 52 2 15 9 49 14 77 6 28 12 71 15 96 3 25 8 65 11 90 3 25 8 68
11 95 7 60 14 3526 7 3538 -3 5 -17 -2 -32 -16 -73 -67 -250 -183 -351 -229
-296 -137 -542 -191 -865 -192 -183 -1 -328 16 -500 57 -136 33 -331 110 -450
177 -135 77 -126 70 -231 153 -56 44 -83 60 -90 53z"/>
</g>
</svg>
